<svg xmlns="http://www.w3.org/2000/svg" shape-rendering="geometricPrecision" text-rendering="geometricPrecision" image-rendering="optimizeQuality" fill-rule="evenodd" clip-rule="evenodd" viewBox="0 0 512 512"><path fill-rule="nonzero" d="M256.002 0c70.69 0 134.688 28.658 181.017 74.981C483.343 121.311 512 185.309 512 255.998c0 70.69-28.657 134.694-74.981 181.018C390.693 483.342 326.692 512 256.002 512s-134.694-28.655-181.017-74.984C28.655 390.692 0 326.688 0 255.998c0-70.689 28.658-134.69 74.985-181.017C121.308 28.658 185.312 0 256.002 0zm73.506 210.246h-43.506v139.517h-60.007V210.246h-43.503V162.24h147.016v48.006zm80.319-108.072C370.462 62.812 316.074 38.46 256.002 38.46c-60.073 0-114.464 24.352-153.825 63.714-39.365 39.364-63.716 93.752-63.716 153.824 0 60.073 24.351 114.464 63.716 153.825 39.361 39.365 93.752 63.717 153.825 63.717 60.072 0 114.46-24.352 153.825-63.717 39.362-39.361 63.713-93.752 63.713-153.825 0-60.072-24.351-114.46-63.713-153.824z"/></svg>